<svg width="142" height="83" viewBox="0 0 142 83" fill="none" xmlns="http://www.w3.org/2000/svg">
<path d="M1.4375 39V1.18182H17.7614C20.5682 1.18182 23.0241 1.73579 25.1293 2.84375C27.2344 3.9517 28.8717 5.50899 30.0412 7.51562C31.2107 9.52225 31.7955 11.8674 31.7955 14.5511C31.7955 17.2595 31.1922 19.6046 29.9858 21.5866C28.7917 23.5687 27.1113 25.0952 24.9446 26.1662C22.7902 27.2372 20.2727 27.7727 17.392 27.7727H7.64205V19.7955H15.3239C16.5303 19.7955 17.5582 19.5862 18.4077 19.1676C19.2694 18.7367 19.928 18.1274 20.3835 17.3395C20.8513 16.5516 21.0852 15.6222 21.0852 14.5511C21.0852 13.4678 20.8513 12.5445 20.3835 11.7812C19.928 11.0057 19.2694 10.4148 18.4077 10.0085C17.5582 9.58996 16.5303 9.38068 15.3239 9.38068H11.7045V39H1.4375ZM72.1989 20.0909C72.1989 24.3011 71.3802 27.8527 69.7429 30.7457C68.1056 33.6264 65.8958 35.8116 63.1136 37.3011C60.3314 38.7784 57.2292 39.517 53.8068 39.517C50.3598 39.517 47.2453 38.7723 44.4631 37.2827C41.6932 35.7808 39.4896 33.5895 37.8523 30.7088C36.2273 27.8158 35.4148 24.2765 35.4148 20.0909C35.4148 15.8807 36.2273 12.3352 37.8523 9.45455C39.4896 6.56155 41.6932 4.37642 44.4631 2.89915C47.2453 1.40956 50.3598 0.664771 53.8068 0.664771C57.2292 0.664771 60.3314 1.40956 63.1136 2.89915C65.8958 4.37642 68.1056 6.56155 69.7429 9.45455C71.3802 12.3352 72.1989 15.8807 72.1989 20.0909ZM61.6364 20.0909C61.6364 17.8258 61.3348 15.9176 60.7315 14.3665C60.1406 12.803 59.2604 11.6212 58.0909 10.821C56.9337 10.0085 55.5057 9.60227 53.8068 9.60227C52.108 9.60227 50.6738 10.0085 49.5043 10.821C48.3471 11.6212 47.4669 12.803 46.8636 14.3665C46.2727 15.9176 45.9773 17.8258 45.9773 20.0909C45.9773 22.3561 46.2727 24.2704 46.8636 25.8338C47.4669 27.3849 48.3471 28.5668 49.5043 29.3793C50.6738 30.1795 52.108 30.5795 53.8068 30.5795C55.5057 30.5795 56.9337 30.1795 58.0909 29.3793C59.2604 28.5668 60.1406 27.3849 60.7315 25.8338C61.3348 24.2704 61.6364 22.3561 61.6364 20.0909ZM76.9492 39V1.18182H93.2731C96.0799 1.18182 98.5359 1.73579 100.641 2.84375C102.746 3.9517 104.383 5.50899 105.553 7.51562C106.722 9.52225 107.307 11.8674 107.307 14.5511C107.307 17.2595 106.704 19.6046 105.498 21.5866C104.303 23.5687 102.623 25.0952 100.456 26.1662C98.302 27.2372 95.7844 27.7727 92.9038 27.7727H83.1538V19.7955H90.8356C92.042 19.7955 93.07 19.5862 93.9194 19.1676C94.7811 18.7367 95.4397 18.1274 95.8952 17.3395C96.363 16.5516 96.5969 15.6222 96.5969 14.5511C96.5969 13.4678 96.363 12.5445 95.8952 11.7812C95.4397 11.0057 94.7811 10.4148 93.9194 10.0085C93.07 9.58996 92.042 9.38068 90.8356 9.38068H87.2163V39H76.9492ZM114.472 32.9432L113.216 29.5455H114.066L114.767 31.6229L115.469 29.5455H116.319L115.063 32.9432H114.472ZM112.847 32.9432V29.5455H113.881V32.9432H112.847ZM115.654 32.9432V29.5455H116.688V32.9432H115.654ZM110.188 32.9432V29.8409H111.222V32.9432H110.188ZM109.154 30.3764V29.5455H112.256V30.3764H109.154ZM21.8239 56C21.7254 54.7689 21.2637 53.8087 20.4389 53.1193C19.6264 52.4299 18.3892 52.0852 16.7273 52.0852C15.6686 52.0852 14.8007 52.2145 14.1236 52.473C13.4588 52.7192 12.9664 53.0578 12.6463 53.4886C12.3262 53.9195 12.16 54.4119 12.1477 54.9659C12.1231 55.4214 12.2031 55.8338 12.3878 56.2031C12.5848 56.5601 12.8925 56.8864 13.3111 57.1818C13.7296 57.465 14.2652 57.7235 14.9176 57.9574C15.5701 58.1913 16.3456 58.4006 17.2443 58.5852L20.3466 59.25C22.4394 59.6932 24.2306 60.2779 25.7202 61.0043C27.2098 61.7306 28.4285 62.5862 29.3764 63.571C30.3243 64.5436 31.0199 65.6392 31.4631 66.858C31.9186 68.0767 32.1525 69.4062 32.1648 70.8466C32.1525 73.3333 31.5308 75.4384 30.2997 77.1619C29.0687 78.8854 27.3082 80.1965 25.0185 81.0952C22.741 81.9938 20.0019 82.4432 16.8011 82.4432C13.5142 82.4432 10.6458 81.9569 8.19602 80.9844C5.75852 80.0118 3.86269 78.5161 2.50852 76.4972C1.16667 74.4659 0.489583 71.8684 0.477273 68.7045H10.2273C10.2888 69.8617 10.5781 70.8343 11.0952 71.6222C11.6122 72.41 12.3385 73.0071 13.2741 73.4134C14.2221 73.8196 15.3485 74.0227 16.6534 74.0227C17.7491 74.0227 18.6662 73.8873 19.4048 73.6165C20.1435 73.3456 20.7036 72.9702 21.0852 72.4901C21.4669 72.0099 21.6638 71.4621 21.6761 70.8466C21.6638 70.268 21.473 69.7633 21.1037 69.3324C20.7467 68.8892 20.1558 68.4953 19.331 68.1506C18.5062 67.7936 17.392 67.4612 15.9886 67.1534L12.2216 66.3409C8.87311 65.6146 6.23248 64.402 4.29972 62.7031C2.37926 60.992 1.42519 58.6591 1.4375 55.7045C1.42519 53.304 2.06534 51.205 3.35795 49.4077C4.66288 47.598 6.46638 46.1884 8.76847 45.179C11.0829 44.1695 13.7358 43.6648 16.7273 43.6648C19.7803 43.6648 22.4209 44.1757 24.6491 45.1974C26.8774 46.2192 28.5947 47.6596 29.8011 49.5185C31.0199 51.3651 31.6354 53.5256 31.6477 56H21.8239ZM35.0362 52.4545V44.1818H67.9055V52.4545H56.5305V82H46.4112V52.4545H35.0362ZM106.629 63.0909C106.629 67.3011 105.81 70.8527 104.173 73.7457C102.535 76.6264 100.326 78.8116 97.5433 80.3011C94.7611 81.7784 91.6589 82.517 88.2365 82.517C84.7895 82.517 81.675 81.7723 78.8928 80.2827C76.1229 78.7808 73.9193 76.5895 72.282 73.7088C70.657 70.8158 69.8445 67.2765 69.8445 63.0909C69.8445 58.8807 70.657 55.3352 72.282 52.4545C73.9193 49.5616 76.1229 47.3764 78.8928 45.8991C81.675 44.4096 84.7895 43.6648 88.2365 43.6648C91.6589 43.6648 94.7611 44.4096 97.5433 45.8991C100.326 47.3764 102.535 49.5616 104.173 52.4545C105.81 55.3352 106.629 58.8807 106.629 63.0909ZM96.0661 63.0909C96.0661 60.8258 95.7644 58.9176 95.1612 57.3665C94.5703 55.803 93.6901 54.6212 92.5206 53.821C91.3634 53.0085 89.9354 52.6023 88.2365 52.6023C86.5376 52.6023 85.1035 53.0085 83.9339 53.821C82.7768 54.6212 81.8965 55.803 81.2933 57.3665C80.7024 58.9176 80.407 60.8258 80.407 63.0909C80.407 65.3561 80.7024 67.2704 81.2933 68.8338C81.8965 70.3849 82.7768 71.5668 83.9339 72.3793C85.1035 73.1795 86.5376 73.5795 88.2365 73.5795C89.9354 73.5795 91.3634 73.1795 92.5206 72.3793C93.6901 71.5668 94.5703 70.3849 95.1612 68.8338C95.7644 67.2704 96.0661 65.3561 96.0661 63.0909ZM111.379 82V44.1818H127.703C130.51 44.1818 132.966 44.7358 135.071 45.8438C137.176 46.9517 138.813 48.509 139.983 50.5156C141.152 52.5223 141.737 54.8674 141.737 57.5511C141.737 60.2595 141.134 62.6046 139.927 64.5866C138.733 66.5687 137.053 68.0952 134.886 69.1662C132.732 70.2372 130.214 70.7727 127.333 70.7727H117.583V62.7955H125.265C126.472 62.7955 127.5 62.5862 128.349 62.1676C129.211 61.7367 129.869 61.1274 130.325 60.3395C130.793 59.5516 131.027 58.6222 131.027 57.5511C131.027 56.4678 130.793 55.5445 130.325 54.7812C129.869 54.0057 129.211 53.4148 128.349 53.0085C127.5 52.59 126.472 52.3807 125.265 52.3807H121.646V82H111.379Z" fill="white"/>
</svg>
